<?xml version="1.0" standalone="no"?>
<!DOCTYPE svg PUBLIC "-//W3C//DTD SVG 20010904//EN"
 "http://www.w3.org/TR/2001/REC-SVG-20010904/DTD/svg10.dtd">
<svg version="1.0" xmlns="http://www.w3.org/2000/svg"
 width="494.000000pt" height="480.000000pt" viewBox="0 0 494.000000 480.000000"
 preserveAspectRatio="xMidYMid meet">
<metadata>
Created by potrace 1.10, written by Peter Selinger 2001-2011
</metadata>
<g transform="translate(0.000000,480.000000) scale(0.100000,-0.100000)"
fill="#000000" stroke="none">
<path d="M2577 4470 c-199 -34 -284 -283 -150 -439 120 -141 344 -117 441 48
23 40 27 57 27 126 0 95 -19 139 -87 202 -63 57 -139 78 -231 63z"/>
<path d="M3033 4432 c-29 -2 -53 -7 -53 -13 0 -5 9 -27 20 -49 11 -22 20 -46
20 -53 0 -11 21 -16 88 -19 68 -3 98 -10 138 -30 138 -71 203 -225 204 -476 0
-167 -36 -402 -61 -402 -6 0 -54 11 -107 24 -140 36 -277 62 -445 85 -81 12
-149 21 -151 21 -2 0 -38 41 -81 92 -43 50 -125 140 -182 198 -56 59 -103 114
-103 121 0 8 -15 37 -34 66 l-33 52 -21 -21 -20 -21 -79 63 c-98 79 -245 176
-354 234 -271 143 -528 165 -700 60 -108 -65 -178 -170 -220 -329 -31 -116
-30 -341 1 -520 34 -190 34 -183 -24 -206 -27 -10 -53 -22 -58 -27 -7 -7 27
-84 48 -111 2 -2 23 4 47 13 23 9 47 16 53 16 6 0 21 -35 34 -77 28 -95 95
-263 157 -395 l46 -98 -46 -98 c-60 -127 -107 -244 -147 -367 -18 -55 -36
-104 -41 -109 -11 -12 -177 54 -284 114 -237 134 -361 277 -373 430 l-5 65
-55 38 c-30 21 -57 35 -60 33 -12 -12 -14 -156 -3 -208 42 -203 265 -411 583
-547 52 -22 106 -43 121 -46 15 -4 29 -11 32 -16 3 -4 -4 -59 -15 -121 -31
-174 -42 -322 -30 -435 20 -193 69 -314 165 -408 44 -44 146 -105 173 -105 6
0 8 28 5 68 -4 54 -9 70 -26 82 -79 55 -140 142 -166 235 -34 121 -32 353 5
534 24 122 12 112 112 85 108 -30 300 -67 452 -88 63 -9 129 -19 146 -21 24
-4 47 -24 97 -84 37 -44 118 -133 182 -199 63 -66 115 -122 115 -125 0 -4
-127 -106 -179 -144 -2 -1 9 -29 25 -62 l29 -59 42 29 c23 16 76 56 117 89
l74 59 82 -64 c127 -100 253 -182 374 -240 190 -92 308 -121 463 -113 85 5
102 9 178 47 146 72 221 186 266 406 20 98 15 311 -12 460 -35 200 -41 181 76
230 120 50 205 93 205 103 -1 4 -19 27 -41 51 l-39 44 -78 -36 c-116 -54 -184
-79 -192 -70 -4 4 -18 40 -30 78 -30 94 -87 236 -150 373 l-51 114 70 158 c39
87 91 218 116 293 l46 135 52 -20 c235 -88 442 -225 529 -349 33 -47 47 -59
68 -59 15 0 48 -6 73 -14 30 -9 47 -10 47 -4 0 6 -14 39 -32 75 -39 80 -139
189 -243 266 -88 64 -300 175 -390 203 -32 10 -60 24 -62 31 -3 7 4 60 16 118
57 285 43 537 -41 713 -60 127 -200 232 -328 247 -30 3 -64 7 -75 8 -11 2 -44
1 -72 -1z m-1479 -171 c101 -35 225 -100 336 -174 95 -64 210 -155 210 -167 0
-4 -48 -57 -108 -117 -59 -60 -143 -151 -186 -201 -60 -70 -84 -92 -103 -92
-81 0 -544 -90 -643 -125 l-39 -14 -15 67 c-42 192 -52 433 -23 555 38 156
122 257 247 298 14 5 72 7 130 5 87 -3 121 -9 194 -35z m800 -571 c75 -77 136
-144 136 -148 0 -4 -128 -7 -285 -7 l-284 -1 17 21 c30 37 267 275 273 275 4
0 68 -63 143 -140z m131 -289 l129 -8 29 -34 c104 -124 311 -438 421 -641 l47
-87 -62 -113 c-111 -201 -224 -376 -355 -549 l-73 -96 -63 -6 c-137 -14 -451
-18 -598 -9 l-155 10 -28 34 c-100 117 -285 397 -406 615 l-63 113 48 87 c111
205 326 532 421 640 l28 33 135 9 c180 11 386 12 545 2z m500 -56 c138 -23
359 -75 371 -88 9 -9 -37 -149 -102 -312 -36 -87 -66 -161 -68 -163 -2 -1 -32
46 -66 105 -76 131 -195 314 -261 404 -27 37 -49 69 -49 73 0 9 8 8 175 -19z
m-1411 -37 c-74 -102 -220 -325 -274 -421 -30 -53 -58 -97 -61 -97 -16 0 -179
409 -179 451 0 18 427 115 518 118 l34 1 -38 -52z m-292 -903 c36 -69 186
-305 258 -405 39 -54 70 -100 70 -104 0 -9 -83 2 -230 30 -171 34 -320 75
-320 88 0 29 66 211 133 369 46 109 45 108 89 22z m1958 -52 c48 -116 120
-317 120 -334 0 -9 -201 -63 -330 -89 -142 -28 -225 -37 -216 -22 4 7 42 61
85 121 43 60 117 176 166 258 114 191 115 193 119 193 2 0 27 -57 56 -127z
m191 -632 c25 -153 27 -345 5 -449 -66 -313 -327 -396 -691 -222 -110 53 -294
171 -382 247 l-52 44 96 97 c53 53 138 145 190 204 92 105 94 106 146 113 213
26 443 72 622 123 38 11 39 8 66 -157z m-981 -51 c-27 -30 -92 -98 -145 -150
l-97 -95 -139 144 c-76 79 -139 147 -139 150 0 3 128 6 284 6 l284 1 -48 -56z"/>
<path d="M2096 3004 c-91 -28 -161 -81 -211 -159 -50 -78 -68 -145 -63 -234 9
-147 92 -271 226 -334 61 -29 76 -32 162 -32 86 0 101 3 162 32 224 106 297
386 153 582 -98 133 -274 192 -429 145z"/>
<path d="M335 3277 c-56 -27 -119 -91 -143 -146 -20 -47 -19 -155 2 -204 22
-51 81 -114 130 -140 58 -31 184 -31 241 0 126 68 182 222 126 349 -45 101
-123 155 -236 161 -58 3 -78 0 -120 -20z"/>
<path d="M4025 2648 c-116 -44 -184 -137 -186 -255 -4 -160 127 -282 289 -271
77 6 117 23 168 75 99 99 102 275 6 376 -63 67 -201 104 -277 75z"/>
<path d="M1483 1204 c-51 -18 -114 -78 -144 -136 -32 -61 -32 -165 -1 -230 26
-54 88 -113 141 -136 54 -23 166 -20 217 6 103 53 154 133 154 241 0 193 -183
320 -367 255z"/>
</g>
</svg>
