<svg xmlns="http://www.w3.org/2000/svg" width="759" height="213" viewBox="0 0 759 213">
<g>
<path d="M 86.88,101.43 L 87.20,101.62 L 87.81,101.83 L 87.40,102.00 L 87.27,102.00 L 86.89,101.53 L 86.70,101.25 L 86.52,100.83 M 141.52,38.84 L 141.97,39.00 L 142.48,39.92 L 142.69,40.48 L 142.71,40.83 L 142.66,40.76 L 142.38,40.53 L 142.19,40.51 L 141.77,40.53 L 141.50,40.64 L 140.45,41.41 L 140.07,42.11 L 140.05,42.49 L 140.11,43.24 L 140.31,43.56 L 140.82,44.16 L 141.25,44.34 L 141.93,44.61 L 142.21,44.72 L 142.68,44.90 L 142.75,44.92 L 142.76,44.87 L 142.71,45.92 L 142.40,51.00 L 142.31,52.55 L 141.99,55.44 L 141.81,56.85 L 141.32,59.47 L 141.05,60.75 L 140.66,62.12 L 140.36,62.00 L 140.02,62.00 L 139.53,62.33 L 139.10,62.83 L 138.84,63.20 L 137.72,64.92 L 137.16,65.97 L 136.05,68.12 L 135.65,69.06 L 135.29,69.98 L 135.18,70.35 L 135.00,71.03 L 135.00,71.25 L 135.13,71.87 L 135.35,71.85 L 135.90,71.59 L 136.28,71.19 L 137.10,70.20 L 137.18,70.08 L 137.07,70.26 L 135.81,71.96 L 135.15,72.78 L 133.67,74.28 L 131.22,76.32 L 130.95,76.52 L 130.03,77.13 L 129.51,77.47 L 128.30,78.23 L 128.42,78.06 L 128.75,77.49 L 128.71,77.30 L 128.49,77.00 L 128.14,77.00 L 126.60,77.22 L 125.66,77.57 L 125.27,77.81 L 124.57,78.35 L 124.35,78.66 L 124.00,79.30 L 124.00,79.64 L 124.03,80.13 L 124.09,80.28 L 124.26,80.52 L 124.41,80.55 L 124.54,80.55 L 122.70,81.67 L 120.58,82.94 L 115.74,85.83 L 113.25,87.31 L 108.09,90.35 L 105.52,91.85 L 100.59,94.71 L 99.40,95.40 L 97.16,96.68 L 96.07,97.30 L 94.09,98.43 L 93.13,98.97 L 91.47,99.90 L 90.68,100.34 L 89.41,101.03 L 88.83,101.34 L 88.41,101.55 L 88.75,101.12 L 88.98,100.33 L 89.06,99.80 L 89.23,97.35 L 89.16,95.96 L 88.92,93.15 L 88.66,92.02 L 88.38,90.96 L 88.21,90.57 L 87.85,89.91 L 87.64,89.78 L 87.19,89.92 L 86.91,90.39 L 86.79,90.78 L 86.55,91.65 L 86.45,92.19 L 86.26,93.32 L 86.19,93.95 L 86.07,95.54 L 86.07,95.35 L 86.17,93.04 L 86.23,91.84 L 86.41,89.31 L 86.61,86.76 L 87.17,81.93 L 87.32,80.82 L 87.65,78.94 L 88.15,76.86 L 88.30,76.40 L 88.88,75.16 L 89.20,74.51 L 90.04,73.02 L 93.00,68.50 L 93.97,67.20 L 95.79,65.16 L 96.32,64.65 L 97.67,63.54 L 98.42,62.96 L 100.39,61.61 L 100.93,61.24 L 102.17,60.44 L 102.83,60.03 L 104.31,59.11 L 105.09,58.63 L 105.16,58.59 L 104.83,58.79 L 102.75,60.19 L 101.94,60.78 L 100.50,61.90 L 100.09,62.30 L 99.74,62.67 L 99.65,62.81 L 99.53,63.05 L 99.58,63.12 L 99.81,63.37 L 99.99,63.42 L 100.40,63.47 L 100.66,63.42 L 101.83,63.03 L 102.56,62.55 L 104.54,61.46 L 105.68,61.00 L 105.96,61.00 L 107.26,60.49 L 108.38,59.73 L 108.90,59.25 L 111.09,57.42 L 112.78,56.13 L 113.61,55.55 L 115.23,54.44 L 115.87,54.06 L 116.47,53.71 L 116.71,53.59 L 117.13,53.40 L 117.25,53.38 L 118.89,53.12 L 119.71,52.56 L 120.23,51.83 L 120.40,51.39 L 120.60,50.71 L 120.60,50.40 L 120.51,50.33 L 120.27,50.23 L 120.04,50.28 L 119.49,50.43 L 119.08,50.61 L 118.16,51.03 L 117.54,51.36 L 116.18,52.08 L 115.56,52.43 L 117.32,51.41 L 118.75,50.57 L 121.92,48.73 L 122.29,48.52 L 122.00,48.88 L 122.00,49.11 L 122.17,49.71 L 122.43,49.85 L 123.08,50.02 L 123.49,49.95 L 124.36,49.73 L 124.80,49.49 L 125.66,48.91 L 126.00,48.50 L 126.62,47.41 L 126.52,47.00 L 126.20,47.00 L 123.91,47.58 L 127.16,45.70 L 128.23,45.08 L 130.15,43.96 L 131.08,43.42 L 132.75,42.46 L 133.55,41.99 L 134.98,41.19 L 135.66,40.81 L 136.86,40.18 L 137.44,39.89 L 138.44,39.43 L 138.91,39.23 L 139.72,38.95 L 140.48,38.73 M 86.31,100.38 L 86.22,100.13 L 86.16,99.50 Z" fill="rgba(0,0,0,1)"/>
<path d="M 87.85,89.91 L 88.21,90.57 L 88.38,90.96 L 88.66,92.02 L 88.92,93.15 L 89.16,95.96 L 89.23,97.35 L 89.06,99.80 L 88.98,100.33 L 88.75,101.12 L 88.25,101.75 L 87.91,101.86 L 87.20,101.62 L 86.88,101.43 L 86.44,100.71 L 86.31,100.38 L 86.15,99.44 L 86.08,98.94 L 86.02,97.76 L 85.99,96.55 L 86.19,93.95 L 86.26,93.32 L 86.45,92.19 L 86.55,91.65 L 86.79,90.78 L 86.91,90.39 L 87.19,89.92 L 87.64,89.78 M 128.71,77.30 L 128.75,77.49 L 128.42,78.06 L 128.21,78.36 L 127.45,79.04 L 125.94,80.03 L 125.57,80.23 L 125.01,80.46 L 124.75,80.55 L 124.41,80.55 L 124.26,80.52 L 124.09,80.28 L 124.03,80.13 L 124.00,79.64 L 124.00,79.30 L 124.35,78.66 L 124.57,78.35 L 125.27,77.81 L 125.66,77.57 L 126.60,77.22 L 128.14,77.00 L 128.49,77.00 M 140.76,62.15 L 140.90,62.27 L 140.88,62.82 L 140.81,63.17 L 140.32,64.33 L 139.01,66.97 L 138.53,67.92 L 137.57,69.49 L 137.10,70.20 L 136.28,71.19 L 135.90,71.59 L 135.35,71.85 L 135.13,71.87 L 135.00,71.25 L 135.00,71.03 L 135.18,70.35 L 135.29,69.98 L 135.65,69.06 L 136.05,68.12 L 137.16,65.97 L 137.72,64.92 L 138.84,63.20 L 139.10,62.83 L 139.53,62.33 L 140.02,62.00 L 140.36,62.00 M 120.51,50.33 L 120.60,50.40 L 120.60,50.71 L 120.40,51.39 L 120.23,51.83 L 119.71,52.56 L 118.89,53.12 L 117.25,53.38 L 117.13,53.40 L 116.71,53.59 L 116.47,53.71 L 115.87,54.06 L 115.23,54.44 L 113.61,55.55 L 112.78,56.13 L 111.09,57.42 L 108.90,59.25 L 108.38,59.73 L 107.26,60.49 L 105.96,61.00 L 105.68,61.00 L 104.54,61.46 L 102.56,62.55 L 101.83,63.03 L 100.66,63.42 L 100.40,63.47 L 99.99,63.42 L 99.81,63.37 L 99.58,63.12 L 99.53,63.05 L 99.65,62.81 L 99.74,62.67 L 100.09,62.30 L 100.50,61.90 L 101.94,60.78 L 102.75,60.19 L 104.83,58.79 L 108.48,56.54 L 109.92,55.69 L 112.33,54.28 L 113.47,53.62 L 115.32,52.57 L 116.18,52.08 L 117.54,51.36 L 118.16,51.03 L 119.08,50.61 L 119.49,50.43 L 120.04,50.28 L 120.27,50.23 M 126.62,47.41 L 126.00,48.50 L 125.66,48.91 L 124.80,49.49 L 124.36,49.73 L 123.49,49.95 L 123.08,50.02 L 122.43,49.85 L 122.17,49.71 L 122.00,49.11 L 122.00,48.88 L 122.40,48.39 L 122.65,48.15 L 123.41,47.71 L 126.20,47.00 L 126.52,47.00 M 142.38,40.53 L 142.66,40.76 L 142.78,40.91 L 142.92,41.42 L 143.00,42.53 L 143.00,43.21 L 142.93,44.25 L 142.75,44.92 L 142.68,44.90 L 142.21,44.72 L 141.93,44.61 L 141.25,44.34 L 140.82,44.16 L 140.31,43.56 L 140.11,43.24 L 140.05,42.49 L 140.07,42.11 L 140.45,41.41 L 141.50,40.64 L 141.77,40.53 L 142.19,40.51 Z" fill="rgba(1,0,1,1)"/>
<path d="M 95.55,104.04 L 96.30,104.23 L 96.71,104.34 L 97.75,104.73 L 98.30,104.95 L 99.59,105.52 L 100.26,105.83 L 101.76,106.56 L 103.31,107.32 L 106.85,109.22 L 108.66,110.22 L 112.49,112.43 L 114.41,113.56 L 118.19,115.89 L 120.05,117.05 L 123.46,119.31 L 125.08,120.40 L 127.78,122.38 L 128.39,122.85 L 129.43,123.70 L 130.66,124.82 L 131.47,125.65 L 132.88,127.27 L 133.55,128.07 L 134.70,129.70 L 135.25,130.52 L 136.15,132.22 L 136.57,133.09 L 137.26,134.94 L 137.58,135.89 L 138.06,137.95 L 138.29,139.01 L 138.60,141.35 L 138.74,142.56 L 138.90,145.25 L 138.99,149.75 L 138.99,151.30 L 138.93,154.11 L 138.90,155.46 L 138.78,157.68 L 138.71,158.70 L 138.54,160.09 L 138.50,160.37 L 138.40,160.74 L 138.25,160.96 L 138.20,160.95 L 137.70,160.72 L 137.39,160.56 L 136.42,160.05 L 135.88,159.76 L 134.49,158.99 L 133.75,158.58 L 131.99,157.60 L 131.07,157.09 L 129.01,155.92 L 127.95,155.31 L 125.63,153.99 L 123.26,152.64 L 118.00,149.59 L 116.64,148.80 L 114.11,147.32 L 112.88,146.59 L 110.60,145.23 L 108.37,143.89 L 104.58,141.50 L 102.79,140.34 L 99.78,138.26 L 98.37,137.25 L 96.03,135.38 L 94.94,134.46 L 93.16,132.70 L 92.33,131.83 L 90.99,130.08 L 90.36,129.21 L 89.35,127.39 L 88.07,124.47 L 87.52,122.98 L 86.76,120.17 L 86.43,118.80 L 86.12,116.24 L 86.02,115.00 L 86.14,112.74 L 86.26,111.66 L 86.80,109.74 L 87.12,108.83 L 88.07,107.30 L 88.59,106.59 L 89.92,105.50 L 90.64,105.01 L 92.34,104.39 L 95.30,104.04 Z" fill="rgba(74,74,74,1)"/>
<path d="M 375.33,128.90 L 376.76,129.10 L 377.34,129.08 L 378.41,128.95 L 378.84,128.73 L 379.62,128.20 L 379.91,127.76 L 380.44,126.75 L 380.63,126.04 L 380.95,124.53 L 380.67,125.94 L 380.49,126.68 L 379.97,127.72 L 379.67,128.18 L 378.90,128.73 L 378.47,128.95 L 377.39,129.08 L 376.80,129.11 L 375.36,128.91 L 374.59,128.77 L 372.75,128.31 L 374.57,128.76 M 305.23,107.00 L 305.16,112.85 L 305.13,116.11 L 305.13,117.44 L 305.15,119.94 L 305.17,120.94 L 305.23,122.78 L 305.28,123.50 L 305.39,124.80 L 305.47,125.29 L 305.65,126.17 L 305.76,126.49 L 306.29,127.47 L 306.67,127.75 L 307.75,128.42 L 308.34,128.62 L 308.59,128.68 L 308.51,128.67 L 307.91,128.50 L 306.75,127.92 L 306.36,127.69 L 305.81,126.80 L 305.70,126.50 L 305.51,125.66 L 305.42,125.19 L 305.29,123.92 L 305.23,123.22 L 305.14,121.42 L 305.10,120.43 L 305.05,117.98 L 305.03,116.66 L 305.01,113.44 L 305.00,107.65 L 305.00,106.36 L 305.00,104.00 L 305.01,102.85 L 305.02,100.78 L 305.04,98.77 L 305.11,95.54 L 305.16,94.04 L 305.33,91.71 L 305.43,90.64 L 305.46,90.49 M 381.09,123.28 L 380.99,124.33 L 380.96,124.48 L 381.07,123.48 L 381.15,122.53 M 690.52,118.36 L 690.88,118.53 L 691.48,119.23 L 692.48,120.95 L 692.78,121.54 L 692.78,121.54 L 692.48,120.97 L 691.51,119.31 L 690.92,118.61 L 690.59,118.43 L 689.87,118.17 L 689.40,118.17 L 688.38,118.25 L 689.21,118.16 L 689.75,118.13 M 663.18,116.21 L 664.13,116.78 L 666.41,117.82 L 669.89,118.96 L 668.96,118.78 L 667.97,118.47 L 666.02,117.79 L 665.12,117.36 L 663.37,116.42 L 662.56,115.86 L 661.86,115.33 M 488.51,105.10 L 487.15,108.33 L 486.60,109.69 L 486.08,111.00 L 485.85,111.57 L 485.43,112.65 L 485.27,113.09 L 484.97,113.90 L 484.88,114.19 L 484.73,114.68 L 484.71,114.80 L 483.84,117.38 L 483.02,118.39 L 482.60,118.51 L 482.18,118.56 L 481.99,118.48 L 481.63,118.25 L 481.48,118.03 L 481.22,117.52 L 481.13,117.15 L 481.00,116.34 L 481.00,115.82 L 480.90,115.21 L 480.73,114.60 L 480.61,114.20 L 479.99,112.37 L 479.55,111.19 L 478.59,108.66 L 478.02,107.23 L 476.82,104.28 L 476.18,102.75 L 476.18,102.75 L 476.72,103.97 L 478.28,107.32 L 479.03,108.92 L 480.38,111.57 L 480.70,112.18 L 481.26,113.21 L 481.54,113.69 L 482.00,114.45 L 482.21,114.78 L 482.55,115.23 L 482.90,115.50 L 482.98,115.50 L 483.25,115.20 L 483.41,115.01 L 483.83,114.36 L 484.06,113.99 L 484.60,113.01 L 484.89,112.49 L 485.53,111.24 L 486.20,109.93 L 487.77,106.63 L 489.81,102.06 M 687.67,118.38 L 686.64,118.54 L 687.16,118.45 L 688.01,118.29 L 688.37,118.25 M 684.08,109.62 L 684.30,109.78 L 684.74,110.19 L 685.02,110.52 L 685.88,111.13 L 686.73,111.46 L 687.25,111.58 L 689.18,111.90 L 687.65,111.94 L 686.77,111.96 L 684.81,111.98 L 683.79,111.99 L 681.54,112.00 L 677.81,112.00 L 675.24,112.00 L 670.69,112.07 L 669.62,112.09 L 667.66,112.15 L 666.71,112.18 L 665.05,112.26 L 664.26,112.30 L 662.93,112.40 L 662.30,112.45 L 661.34,112.56 L 660.90,112.61 L 660.34,112.73 L 660.00,112.93 L 660.00,113.15 L 660.23,113.66 L 660.38,113.92 L 660.88,114.48 L 661.29,114.89 L 660.97,114.66 L 660.23,113.96 L 658.99,112.68 L 658.36,111.91 L 658.14,111.58 L 657.77,110.95 L 657.69,110.70 L 657.57,110.23 L 657.61,110.06 L 657.75,109.76 L 657.91,109.69 L 658.30,109.59 L 658.58,109.62 L 659.21,109.74 L 659.62,109.88 L 660.48,110.23 L 661.01,110.50 L 662.90,111.17 L 664.54,111.52 L 665.49,111.65 L 669.57,112.03 L 671.73,112.03 L 673.88,112.00 L 674.90,111.94 L 676.89,111.78 L 677.77,111.66 L 679.45,111.37 L 680.11,111.18 L 681.31,110.77 L 681.67,110.52 L 682.83,109.78 L 683.40,109.54 L 683.64,109.54 M 632.04,107.97 L 632.28,112.29 L 632.03,107.84 M 395.41,112.02 L 395.40,111.98 L 395.39,111.87 M 395.16,110.11 L 395.14,109.96 L 395.05,108.95 L 395.05,108.31 M 698.34,106.96 L 698.43,107.66 L 698.42,107.68 L 698.36,107.12 L 698.22,106.20 M 631.83,105.44 L 632.00,107.45 L 631.81,105.29 M 631.70,104.33 L 631.73,104.57 L 631.68,104.18 M 631.41,102.21 L 631.63,103.87 L 631.36,101.97 M 631.22,101.28 L 631.26,101.46 L 631.17,101.03 M 630.83,99.50 L 631.12,100.83 L 630.74,99.19 M 370.66,88.43 L 372.67,89.59 L 373.63,90.20 L 375.27,91.56 L 376.05,92.27 L 377.34,93.90 L 377.95,94.76 L 378.93,96.72 L 379.38,97.75 L 379.70,98.82 L 379.69,98.80 L 377.64,94.91 L 375.85,92.55 L 374.79,91.52 L 372.56,89.58 L 371.32,88.81 L 370.39,88.30 M 630.59,98.72 L 630.62,98.80 L 630.57,98.67 M 629.50,95.83 L 629.76,96.53 L 629.52,96.05 L 628.81,94.77 M 502.76,86.10 L 501.44,86.19 L 496.60,86.50 L 492.62,95.61 L 496.56,86.50 L 501.42,86.19 L 502.75,86.10 M 628.72,94.64 L 628.74,94.67 L 628.67,94.58 M 625.83,91.30 L 626.99,92.38 L 628.17,93.92 L 626.39,91.82 L 625.09,90.73 M 410.10,87.55 L 408.62,88.07 L 405.78,89.20 L 404.54,89.91 L 402.16,91.43 L 401.15,92.33 L 400.24,93.24 L 400.30,93.17 L 401.44,91.94 L 403.86,90.07 L 405.12,89.22 L 407.98,88.02 L 409.49,87.50 L 413.05,86.89 L 413.16,86.88 M 623.61,89.60 L 625.05,90.70 L 622.47,88.94 M 612.73,86.17 L 609.33,86.10 L 607.20,86.24 L 603.68,86.55 L 601.83,86.82 L 601.14,86.99 L 599.88,87.35 L 599.44,87.58 L 598.69,88.07 L 598.48,88.36 L 597.16,89.51 L 596.16,89.93 L 595.69,89.95 L 594.80,89.89 L 594.49,89.66 L 594.00,89.09 L 594.00,88.62 L 593.40,87.47 L 592.61,86.97 L 593.38,87.10 L 594.61,87.43 L 597.03,87.59 L 600.75,87.05 L 601.88,86.74 L 604.20,86.31 L 605.37,86.13 L 607.73,85.97 L 610.09,85.86 M 356.30,86.22 L 354.26,86.39 L 353.30,86.52 L 351.45,86.80 L 350.64,86.98 L 349.11,87.37 L 348.52,87.60 L 347.47,88.08 L 347.17,88.35 L 345.52,89.56 L 344.57,89.93 L 344.16,89.90 L 343.36,89.69 L 343.00,89.36 L 342.30,88.57 L 341.97,87.94 L 341.26,86.96 L 341.08,86.81 L 342.57,87.28 L 343.12,87.57 L 344.07,87.94 L 344.53,88.09 L 345.42,88.18 L 345.88,88.18 L 346.92,87.99 L 348.87,87.38 L 349.55,87.14 L 351.12,86.76 L 351.94,86.58 L 353.72,86.34 L 355.54,86.12 L 358.05,86.10 M 435.60,74.33 L 435.46,75.51 L 435.26,80.37 L 435.39,81.75 L 435.51,82.36 L 435.80,83.51 L 436.00,83.99 L 436.64,85.97 L 436.83,87.10 L 436.81,87.57 L 436.70,88.44 L 436.54,88.77 L 436.16,89.36 L 435.88,89.54 L 435.26,89.84 L 434.86,89.87 L 434.02,89.85 L 433.52,89.71 L 432.48,89.36 L 431.90,89.05 L 430.70,88.36 L 430.04,87.87 L 428.44,86.88 L 429.78,87.01 L 431.75,87.33 L 435.00,88.16 L 435.01,82.83 L 435.01,81.67 L 435.06,79.62 L 435.10,78.63 L 435.21,76.91 L 435.28,76.09 L 435.47,74.68 L 435.57,74.01 L 435.83,72.88 L 435.90,72.64 M 468.14,86.97 L 469.00,87.50 L 469.07,87.58 L 469.33,88.02 L 469.48,88.29 L 469.63,88.58 L 469.49,88.37 L 468.59,87.31 L 468.03,86.93 M 312.11,86.02 L 312.68,86.04 L 313.59,86.25 L 314.00,86.39 L 314.21,86.57 L 312.95,86.39 L 311.98,86.54 L 311.66,86.75 L 310.11,87.28 L 308.69,87.50 L 306.30,87.50 L 306.35,87.40 L 306.60,86.98 L 307.26,86.47 L 307.61,86.27 L 308.49,86.08 L 310.12,86.00 L 310.87,86.00 M 457.99,87.19 L 457.99,87.17 L 458.30,86.94 M 458.37,86.88 L 458.41,86.85 L 458.53,86.79 M 460.96,86.31 L 459.80,86.44 L 459.36,86.54 L 458.59,86.75 L 458.68,86.70 L 459.53,86.49 L 460.46,86.31 L 462.65,86.25 M 337.84,86.14 L 337.18,86.19 L 333.50,86.50 L 336.70,86.19 L 337.58,86.11 M 361.39,86.14 L 361.56,86.16 L 358.92,86.09 L 359.44,86.09 M 403.64,124.49 L 402.50,123.75 L 400.65,122.10 L 399.78,121.24 L 398.35,119.26 L 398.27,119.11 L 399.23,120.45 L 399.88,121.17 L 401.25,122.57 L 402.03,123.22 L 403.66,124.47 L 404.57,125.03 L 406.46,126.13 L 407.50,126.62 L 406.04,125.94 M 315.97,98.02 L 315.95,96.68 L 315.90,94.17 L 315.86,93.16 L 315.79,91.46 L 315.83,91.92 L 315.93,94.65 L 315.95,95.40 L 315.97,97.09 L 315.99,97.97 L 316.00,99.95 L 316.00,100.98 L 316.00,103.27 L 316.00,107.07 L 315.99,101.27 M 587.28,86.59 L 587.28,86.59 L 586.85,86.68 L 584.00,87.25 L 586.88,86.67 M 439.24,69.23 L 438.63,69.38 L 439.28,69.21 L 441.04,69.14 L 443.50,69.41 L 441.02,69.15 Z" fill="rgba(247,241,245,1)"/>
<path d="M 189.56,104.13 L 190.76,104.51 L 191.35,104.75 L 192.48,105.51 L 194.20,107.05 L 194.91,107.76 L 195.86,108.85 L 196.27,109.38 L 196.69,110.41 L 196.85,110.96 L 196.87,112.35 L 196.59,115.30 L 196.43,116.51 L 196.08,118.72 L 195.89,119.78 L 195.45,121.72 L 194.99,123.60 L 193.74,126.74 L 193.04,128.24 L 191.19,130.91 L 187.54,134.79 L 187.26,135.05 L 186.39,135.73 L 185.90,136.10 L 184.66,136.98 L 184.00,137.44 L 182.44,138.49 L 181.63,139.04 L 179.81,140.23 L 177.94,141.44 L 173.62,144.15 L 171.41,145.52 L 166.72,148.36 L 164.37,149.78 L 159.74,152.50 L 157.47,153.82 L 153.31,156.17 L 152.32,156.72 L 150.50,157.71 L 149.62,158.19 L 148.06,159.00 L 147.32,159.38 L 146.07,159.98 L 144.62,160.61 L 144.17,160.78 L 143.58,160.73 L 143.46,160.67 L 143.27,160.35 L 143.19,160.15 L 143.08,159.51 L 143.03,159.14 L 142.98,158.11 L 142.97,157.53 L 142.98,156.03 L 142.99,155.21 L 143.05,153.17 L 143.09,152.07 L 143.19,149.41 L 143.28,146.97 L 143.63,142.75 L 143.84,140.73 L 144.54,137.19 L 144.95,135.49 L 146.12,132.45 L 146.78,130.98 L 148.57,128.27 L 149.55,126.94 L 152.09,124.37 L 153.46,123.09 L 156.87,120.49 L 157.79,119.83 L 159.81,118.47 L 160.85,117.79 L 163.13,116.36 L 164.30,115.63 L 166.87,114.11 L 171.05,111.70 L 173.00,110.59 L 176.32,108.76 L 177.90,107.90 L 180.57,106.56 L 181.84,105.95 L 183.97,105.07 L 184.98,104.69 L 186.68,104.26 L 187.49,104.10 L 188.89,104.09 Z" fill="rgba(148,148,148,1)"/>
<path d="M 225.23,128.17 L 225.11,128.09 L 224.90,127.65 L 224.80,127.38 L 224.63,126.50 L 224.56,126.01 L 224.43,124.62 L 224.37,123.86 L 224.29,121.89 L 224.25,120.83 L 224.20,118.22 L 224.18,116.82 L 224.16,113.48 L 224.16,111.72 L 224.18,107.59 L 224.23,100.43 L 224.50,73.50 L 230.00,73.22 L 235.50,72.93 L 245.48,82.97 L 255.46,93.00 L 265.56,82.94 L 275.65,72.88 L 281.08,73.19 L 286.50,73.50 L 286.77,100.27 L 287.03,127.04 L 284.34,128.06 L 283.60,128.34 L 281.61,128.60 L 278.83,128.46 L 276.00,127.84 L 276.00,108.92 L 276.00,107.25 L 275.98,104.26 L 275.97,102.83 L 275.94,100.32 L 275.91,99.12 L 275.85,97.05 L 275.82,96.07 L 275.74,94.44 L 275.69,93.68 L 275.58,92.46 L 275.52,91.90 L 275.38,91.07 L 275.31,90.71 L 275.15,90.26 L 274.87,90.00 L 274.79,90.00 L 274.46,90.18 L 274.27,90.29 L 273.74,90.68 L 273.16,91.12 L 271.49,92.53 L 270.59,93.31 L 268.45,95.27 L 264.95,98.61 L 263.74,99.79 L 261.45,101.92 L 260.35,102.93 L 258.44,104.58 L 257.55,105.33 L 256.22,106.32 L 255.94,106.52 L 255.52,106.75 L 255.14,106.86 L 255.07,106.83 L 254.75,106.62 L 254.56,106.49 L 254.04,106.07 L 253.46,105.61 L 251.79,104.19 L 250.89,103.42 L 248.74,101.51 L 245.19,98.29 L 243.96,97.16 L 241.67,95.15 L 240.57,94.21 L 238.69,92.68 L 237.82,91.99 L 236.57,91.11 L 236.31,90.94 L 235.93,90.75 L 235.62,90.71 L 235.58,90.75 L 235.50,91.21 L 235.46,91.49 L 235.38,92.39 L 235.34,92.89 L 235.28,94.18 L 235.24,94.87 L 235.18,96.50 L 235.16,97.36 L 235.11,99.28 L 235.08,100.27 L 235.05,102.43 L 235.00,109.56 L 235.00,111.52 L 234.99,114.85 L 234.98,116.43 L 234.94,119.05 L 234.92,120.28 L 234.86,122.28 L 234.82,123.21 L 234.72,124.67 L 234.66,125.34 L 234.52,126.34 L 234.44,126.80 L 234.24,127.44 L 233.42,128.39 L 232.86,128.61 L 231.41,128.85 L 230.66,128.94 L 229.06,128.96 L 228.27,128.94 L 226.84,128.72 L 226.17,128.59 M 306.67,127.75 L 306.29,127.47 L 305.76,126.49 L 305.65,126.17 L 305.47,125.29 L 305.39,124.80 L 305.28,123.50 L 305.23,122.78 L 305.17,120.94 L 305.15,119.94 L 305.13,117.44 L 305.13,116.11 L 305.16,112.85 L 305.23,107.00 L 305.50,87.50 L 308.00,87.50 L 308.69,87.50 L 310.11,87.28 L 311.66,86.75 L 311.98,86.54 L 312.95,86.39 L 314.41,86.60 L 314.58,86.67 L 314.87,86.93 L 315.01,87.09 L 315.24,87.60 L 315.35,87.90 L 315.52,88.77 L 315.60,89.26 L 315.72,90.58 L 315.78,91.30 L 315.86,93.16 L 315.90,94.17 L 315.95,96.68 L 315.97,98.02 L 315.99,101.27 L 316.00,107.07 L 316.00,109.40 L 315.99,113.27 L 315.98,115.09 L 315.95,118.05 L 315.93,119.43 L 315.87,121.60 L 315.83,122.61 L 315.71,124.13 L 315.65,124.83 L 315.47,125.83 L 315.38,126.29 L 315.13,126.91 L 314.07,127.96 L 313.42,128.31 L 312.11,128.73 L 311.46,128.89 L 310.18,128.95 L 309.54,128.93 L 308.34,128.62 L 307.75,128.42 M 372.75,128.31 L 372.37,128.21 L 371.83,127.71 L 371.59,127.37 L 371.29,126.08 L 371.23,125.69 L 371.13,124.68 L 371.09,124.14 L 371.03,122.78 L 371.01,122.06 L 370.97,120.31 L 370.94,117.18 L 370.94,115.71 L 370.83,112.76 L 370.76,111.31 L 370.55,108.64 L 370.44,107.36 L 370.16,105.26 L 369.69,103.09 L 369.41,102.29 L 368.60,100.84 L 368.16,100.14 L 367.05,98.93 L 366.47,98.35 L 365.11,97.38 L 364.40,96.93 L 362.83,96.22 L 362.02,95.90 L 360.27,95.47 L 359.37,95.29 L 357.48,95.16 L 356.52,95.13 L 354.53,95.30 L 351.48,95.92 L 350.57,96.17 L 349.06,96.63 L 348.36,96.86 L 347.24,97.36 L 346.72,97.63 L 345.91,98.28 L 345.55,98.64 L 345.01,99.58 L 344.77,100.09 L 344.44,101.43 L 344.30,102.16 L 344.12,104.01 L 344.05,105.02 L 343.97,107.51 L 343.91,112.10 L 343.89,114.15 L 343.85,117.49 L 343.83,119.05 L 343.75,121.50 L 343.70,122.63 L 343.52,124.34 L 343.42,125.11 L 343.10,126.20 L 342.92,126.68 L 342.41,127.29 L 342.12,127.55 L 341.36,127.82 L 340.95,127.93 L 339.89,127.99 L 337.91,128.00 L 332.96,128.00 L 333.23,107.25 L 333.50,86.50 L 337.18,86.19 L 337.91,86.13 L 339.03,86.14 L 339.54,86.17 L 340.34,86.37 L 340.70,86.51 L 341.26,86.96 L 341.97,87.94 L 342.30,88.57 L 343.00,89.36 L 343.36,89.69 L 344.16,89.90 L 344.57,89.93 L 345.52,89.56 L 347.17,88.35 L 347.47,88.08 L 348.52,87.60 L 349.11,87.37 L 350.64,86.98 L 351.45,86.80 L 353.30,86.52 L 354.26,86.39 L 356.30,86.22 L 358.37,86.08 L 362.47,86.18 L 363.45,86.24 L 365.22,86.47 L 367.45,86.98 L 368.79,87.42 L 371.32,88.81 L 372.56,89.58 L 374.79,91.52 L 375.85,92.55 L 377.64,94.91 L 379.69,98.80 L 380.04,99.71 L 380.56,101.63 L 380.79,102.63 L 381.10,104.98 L 381.23,106.24 L 381.36,109.38 L 381.38,110.23 L 381.40,112.14 L 381.39,115.36 L 381.37,117.08 L 381.30,119.95 L 381.25,121.30 L 381.07,123.48 L 380.96,124.49 L 380.63,126.04 L 380.44,126.75 L 379.91,127.76 L 379.62,128.20 L 378.84,128.73 L 378.41,128.95 L 377.34,129.08 L 376.76,129.10 L 375.33,128.90 L 374.57,128.76 M 407.50,126.62 L 406.46,126.13 L 404.57,125.03 L 403.66,124.47 L 402.03,123.22 L 401.25,122.57 L 399.88,121.17 L 399.23,120.45 L 398.12,118.90 L 397.60,118.10 L 396.76,116.39 L 396.37,115.52 L 395.78,113.66 L 395.52,112.71 L 395.20,110.69 L 395.00,107.50 L 395.00,105.89 L 395.39,102.92 L 395.65,101.47 L 396.56,98.85 L 397.08,97.58 L 398.49,95.32 L 399.25,94.23 L 401.15,92.33 L 402.16,91.43 L 404.54,89.91 L 405.78,89.20 L 408.62,88.07 L 410.10,87.55 L 413.39,86.83 L 418.83,86.20 L 419.75,86.15 L 421.32,86.08 L 422.06,86.05 L 423.32,86.02 L 424.52,86.02 L 426.24,86.18 L 427.02,86.29 L 428.25,86.76 L 430.04,87.87 L 430.70,88.36 L 431.90,89.05 L 432.48,89.36 L 433.52,89.71 L 434.02,89.85 L 434.86,89.87 L 435.26,89.84 L 435.88,89.54 L 436.16,89.36 L 436.54,88.77 L 436.70,88.44 L 436.81,87.57 L 436.83,87.10 L 436.64,85.97 L 436.00,83.99 L 435.80,83.51 L 435.51,82.36 L 435.39,81.75 L 435.26,80.37 L 435.46,75.51 L 435.60,74.33 L 435.90,72.63 L 436.06,71.88 L 436.45,70.88 L 436.68,70.44 L 437.29,69.90 L 438.57,69.39 L 439.24,69.23 L 441.02,69.15 L 443.50,69.41 L 446.00,70.04 L 446.00,99.00 L 446.00,127.96 L 443.57,128.57 L 442.90,128.74 L 441.37,128.79 L 440.59,128.77 L 439.07,128.48 L 438.34,128.31 L 437.10,127.76 L 435.84,126.71 L 435.73,126.54 L 435.18,126.37 L 434.85,126.31 L 433.86,126.36 L 433.31,126.41 L 431.89,126.69 L 429.28,127.34 L 427.17,127.93 L 423.16,128.63 L 421.20,128.90 L 417.49,128.94 L 415.67,128.88 L 412.26,128.27 L 410.60,127.88 M 431.58,116.95 L 432.62,116.31 L 434.02,115.19 L 434.62,114.61 L 435.28,113.21 L 435.40,112.82 L 435.55,111.90 L 435.61,111.41 L 435.62,110.23 L 435.62,109.61 L 435.54,108.12 L 435.31,105.46 L 435.24,104.72 L 435.11,103.46 L 435.04,102.87 L 434.90,101.88 L 434.75,100.95 L 434.34,99.70 L 434.10,99.15 L 433.38,98.39 L 431.80,97.39 L 430.93,96.95 L 429.01,96.26 L 428.02,95.95 L 425.93,95.54 L 424.87,95.37 L 422.71,95.23 L 421.62,95.19 L 419.47,95.31 L 418.41,95.41 L 416.36,95.78 L 415.36,96.00 L 413.51,96.61 L 412.62,96.95 L 411.06,97.81 L 409.15,99.35 L 408.48,100.05 L 407.49,101.64 L 407.06,102.45 L 406.51,104.18 L 406.29,105.06 L 406.17,106.86 L 406.16,107.76 L 406.45,109.55 L 406.64,110.44 L 407.32,112.14 L 407.70,112.97 L 408.75,114.50 L 409.32,115.24 L 410.73,116.52 L 413.21,118.07 L 414.52,118.68 L 417.59,119.35 L 419.17,119.60 L 422.50,119.57 L 424.16,119.47 L 427.36,118.76 L 428.90,118.32 M 478.47,128.37 L 478.28,128.33 L 477.83,128.01 L 477.59,127.81 L 477.04,127.15 L 476.75,126.78 L 476.06,125.74 L 475.70,125.16 L 474.86,123.70 L 474.42,122.91 L 473.41,120.99 L 472.88,119.97 L 471.67,117.54 L 471.04,116.26 L 469.62,113.30 L 467.21,108.21 L 465.94,105.50 L 463.63,100.47 L 463.08,99.26 L 462.06,97.01 L 461.57,95.93 L 460.69,93.96 L 460.28,93.01 L 459.57,91.38 L 459.23,90.61 L 458.72,89.36 L 458.48,88.79 L 458.18,88.00 L 457.99,87.37 L 457.99,87.19 L 458.35,86.89 L 458.58,86.76 L 459.36,86.54 L 459.80,86.44 L 460.96,86.31 L 463.05,86.23 L 464.07,86.23 L 465.61,86.32 L 466.32,86.39 L 467.38,86.65 L 467.86,86.81 L 468.59,87.31 L 469.49,88.37 L 469.65,88.61 L 470.03,89.29 L 470.23,89.66 L 470.70,90.56 L 471.19,91.53 L 472.34,93.98 L 472.94,95.28 L 474.23,98.19 L 474.88,99.68 L 476.18,102.75 L 476.82,104.28 L 478.02,107.23 L 478.59,108.66 L 479.55,111.19 L 479.99,112.37 L 480.61,114.20 L 480.73,114.60 L 480.90,115.21 L 481.00,115.82 L 481.00,116.34 L 481.13,117.15 L 481.22,117.52 L 481.48,118.03 L 481.63,118.25 L 481.99,118.48 L 482.18,118.56 L 482.60,118.51 L 483.02,118.39 L 483.84,117.38 L 484.71,114.80 L 484.73,114.68 L 484.88,114.19 L 484.97,113.90 L 485.27,113.09 L 485.43,112.65 L 485.85,111.57 L 486.08,111.00 L 486.60,109.69 L 487.15,108.33 L 488.51,105.10 L 490.79,99.80 L 496.60,86.50 L 501.44,86.19 L 502.77,86.10 L 505.12,86.23 L 505.64,86.29 L 506.44,86.45 L 507.17,86.77 L 507.22,86.82 L 507.13,87.34 L 507.05,87.66 L 506.71,88.66 L 506.52,89.21 L 505.98,90.63 L 505.69,91.38 L 504.98,93.14 L 504.61,94.06 L 503.76,96.10 L 503.31,97.15 L 502.35,99.39 L 501.37,101.67 L 499.21,106.54 L 498.12,108.98 L 495.93,113.76 L 494.86,116.08 L 492.90,120.19 L 492.43,121.15 L 491.59,122.85 L 491.18,123.66 L 490.48,125.00 L 490.15,125.62 L 489.62,126.53 L 489.06,127.33 L 488.93,127.45 L 488.43,127.69 L 488.15,127.80 L 487.38,128.00 L 486.56,128.20 L 484.45,128.46 L 483.36,128.57 L 481.17,128.61 L 480.13,128.60 M 529.28,128.03 L 528.38,127.82 L 526.76,127.24 L 525.98,126.92 L 524.57,126.16 L 523.21,125.35 L 521.14,123.29 L 520.21,122.20 L 519.00,119.74 L 518.51,118.48 L 518.17,115.84 L 518.11,114.52 L 518.66,111.90 L 519.04,110.62 L 520.48,108.25 L 521.31,107.11 L 523.64,105.20 L 524.29,104.76 L 525.74,104.00 L 528.17,103.07 L 528.75,102.89 L 530.27,102.61 L 531.08,102.47 L 532.95,102.27 L 534.90,102.09 L 539.36,101.97 L 541.60,101.95 L 545.94,102.18 L 546.97,102.26 L 548.85,102.48 L 551.26,102.91 L 551.83,103.04 L 552.79,103.22 L 553.25,103.29 L 553.98,103.33 L 554.32,103.34 L 554.82,103.25 L 555.04,103.19 L 555.32,102.96 L 555.54,102.70 L 555.31,101.76 L 553.97,99.69 L 553.51,99.10 L 552.41,98.10 L 551.83,97.63 L 550.48,96.87 L 549.77,96.51 L 548.12,95.98 L 547.26,95.75 L 545.28,95.45 L 544.24,95.32 L 541.89,95.25 L 540.66,95.23 L 537.90,95.38 L 536.46,95.47 L 533.25,95.83 L 527.88,96.60 L 527.03,96.74 L 525.85,96.85 L 525.33,96.86 L 524.62,96.61 L 524.31,96.43 L 523.83,95.68 L 523.10,93.85 L 522.85,93.15 L 522.56,92.10 L 522.45,91.62 L 522.45,90.91 L 522.48,90.58 L 522.78,90.06 L 523.58,89.32 L 524.10,88.94 L 525.69,88.26 L 526.57,87.94 L 528.75,87.39 L 529.89,87.13 L 532.48,86.71 L 533.81,86.52 L 536.63,86.26 L 539.49,86.04 L 545.17,86.10 L 546.53,86.16 L 549.03,86.43 L 552.28,87.06 L 553.51,87.40 L 555.98,88.65 L 557.19,89.36 L 559.44,91.18 L 560.52,92.14 L 562.33,94.34 L 564.32,97.84 L 564.53,98.36 L 564.94,100.06 L 565.15,101.00 L 565.53,103.35 L 565.72,104.59 L 566.05,107.34 L 566.21,108.75 L 566.48,111.68 L 566.60,113.14 L 566.78,116.01 L 566.86,117.41 L 566.92,119.96 L 566.94,121.18 L 566.88,123.19 L 566.63,125.35 L 566.45,126.04 L 565.59,127.31 L 563.98,128.51 L 563.27,128.73 L 561.54,128.80 L 560.66,128.78 L 558.93,128.45 L 558.11,128.24 L 556.85,127.63 L 556.59,127.47 L 556.23,127.10 L 556.00,126.53 L 556.00,126.27 L 555.72,125.98 L 555.51,125.87 L 554.73,125.88 L 554.27,125.92 L 552.86,126.25 L 549.91,127.10 L 548.36,127.59 L 544.90,128.26 L 543.13,128.54 L 539.46,128.81 L 537.63,128.89 L 534.09,128.74 L 532.37,128.61 M 546.00,118.91 L 547.41,118.60 L 550.40,117.45 L 551.11,117.14 L 552.35,116.47 L 553.80,115.48 L 556.50,113.15 L 553.50,112.00 L 553.09,111.84 L 551.66,111.51 L 550.87,111.34 L 548.88,111.03 L 542.00,110.30 L 541.07,110.24 L 539.49,110.15 L 538.74,110.11 L 537.46,110.08 L 536.26,110.05 L 534.56,110.18 L 533.79,110.28 L 532.65,110.69 L 531.12,111.69 L 530.70,112.03 L 530.07,112.69 L 529.80,113.01 L 529.45,113.65 L 529.39,115.67 L 529.56,116.18 L 530.10,117.06 L 530.40,117.47 L 531.22,118.17 L 531.67,118.49 L 532.76,119.00 L 533.34,119.24 L 534.69,119.56 L 535.40,119.70 L 537.00,119.83 L 537.83,119.87 L 539.66,119.81 L 540.61,119.76 L 542.67,119.51 L 543.73,119.36 M 586.25,128.29 L 585.69,128.19 L 584.95,127.72 L 584.79,127.53 L 584.55,126.88 L 584.44,126.51 L 584.28,125.36 L 584.21,124.71 L 584.12,122.91 L 584.08,121.91 L 584.04,119.28 L 584.02,117.85 L 584.00,114.25 L 584.00,113.28 L 584.00,111.12 L 584.00,107.56 L 584.00,87.25 L 586.85,86.68 L 587.78,86.49 L 589.53,86.42 L 590.38,86.43 L 591.82,86.71 L 592.48,86.89 L 593.40,87.47 L 594.00,88.62 L 594.00,89.09 L 594.49,89.66 L 594.80,89.89 L 595.69,89.95 L 596.16,89.93 L 597.16,89.51 L 598.48,88.36 L 598.69,88.07 L 599.44,87.58 L 599.88,87.35 L 601.14,86.99 L 601.83,86.82 L 603.68,86.55 L 607.20,86.24 L 609.33,86.10 L 612.95,86.17 L 614.67,86.26 L 617.63,86.84 L 619.05,87.19 L 621.56,88.33 L 625.07,90.71 L 626.39,91.82 L 628.34,94.12 L 628.78,94.73 L 629.52,96.05 L 629.87,96.74 L 630.44,98.28 L 630.71,99.08 L 631.14,100.90 L 631.34,101.86 L 631.66,104.04 L 631.80,105.19 L 632.03,107.80 L 632.28,112.29 L 632.35,113.91 L 632.44,117.02 L 632.47,118.53 L 632.49,121.19 L 632.49,122.44 L 632.44,124.35 L 632.42,124.77 L 632.37,125.41 L 632.28,126.05 L 632.13,126.62 L 631.32,127.54 L 630.84,127.95 L 629.52,128.51 L 628.81,128.75 L 627.15,128.90 L 624.50,128.59 L 623.88,128.43 L 623.06,128.04 L 622.89,127.91 L 622.62,127.50 L 622.50,127.27 L 622.32,126.61 L 622.24,126.23 L 622.14,125.22 L 622.09,124.66 L 622.04,123.20 L 622.02,122.41 L 622.00,120.41 L 622.00,116.73 L 622.00,115.10 L 621.93,112.23 L 621.88,110.86 L 621.69,108.48 L 621.58,107.35 L 621.25,105.40 L 621.07,104.47 L 620.59,102.88 L 620.33,102.13 L 619.66,100.85 L 619.31,100.24 L 618.44,99.20 L 617.99,98.70 L 616.90,97.84 L 615.00,96.69 L 613.95,96.15 L 611.46,95.53 L 610.17,95.30 L 607.36,95.28 L 605.94,95.34 L 603.02,95.92 L 598.75,97.45 L 595.00,99.23 L 595.00,113.08 L 595.00,114.66 L 594.99,117.32 L 594.98,118.57 L 594.95,120.62 L 594.93,121.57 L 594.85,123.11 L 594.81,123.82 L 594.70,124.92 L 594.63,125.42 L 594.46,126.18 L 594.36,126.52 L 594.11,127.02 L 593.07,127.96 L 592.08,128.49 L 590.41,128.81 L 589.93,128.84 L 588.72,128.71 L 588.05,128.63 M 663.33,127.15 L 661.99,126.69 L 659.58,125.63 L 658.41,125.08 L 656.35,123.84 L 655.36,123.20 L 653.64,121.77 L 652.82,121.04 L 651.44,119.42 L 650.80,118.58 L 649.75,116.75 L 649.26,115.81 L 648.54,113.77 L 648.22,112.73 L 647.82,110.46 L 647.56,106.81 L 647.56,105.63 L 647.67,103.76 L 647.75,102.88 L 648.11,101.39 L 648.32,100.66 L 649.02,99.23 L 650.55,96.83 L 651.27,95.80 L 652.80,93.98 L 653.58,93.12 L 655.24,91.60 L 656.08,90.89 L 657.90,89.67 L 658.82,89.10 L 660.81,88.17 L 661.82,87.74 L 664.01,87.09 L 665.12,86.80 L 667.52,86.42 L 668.75,86.26 L 671.39,86.13 L 675.64,86.23 L 677.18,86.33 L 680.03,86.79 L 681.43,87.06 L 684.00,87.87 L 685.25,88.32 L 687.52,89.46 L 688.62,90.07 L 690.59,91.54 L 691.53,92.32 L 693.18,94.11 L 693.96,95.04 L 695.28,97.13 L 695.90,98.22 L 696.87,100.62 L 697.93,104.53 L 698.13,105.58 L 698.36,107.12 L 698.44,107.81 L 698.41,108.81 L 698.36,109.26 L 698.05,109.92 L 697.25,110.75 L 696.96,110.97 L 696.13,111.32 L 695.67,111.48 L 694.58,111.72 L 693.44,111.92 L 690.84,111.99 L 689.55,111.96 L 687.25,111.58 L 686.73,111.46 L 685.88,111.13 L 685.02,110.52 L 684.74,110.19 L 684.30,109.78 L 684.08,109.62 L 683.64,109.54 L 683.40,109.54 L 682.83,109.78 L 681.67,110.52 L 681.31,110.77 L 680.11,111.18 L 679.45,111.37 L 677.77,111.66 L 676.89,111.78 L 674.90,111.94 L 673.88,112.00 L 671.73,112.03 L 669.57,112.03 L 665.49,111.65 L 664.54,111.52 L 662.90,111.17 L 661.01,110.50 L 660.48,110.23 L 659.62,109.88 L 659.21,109.74 L 658.58,109.62 L 658.30,109.59 L 657.91,109.69 L 657.75,109.76 L 657.61,110.06 L 657.57,110.23 L 657.69,110.70 L 657.77,110.95 L 658.14,111.58 L 658.36,111.91 L 658.99,112.68 L 660.23,113.96 L 660.97,114.66 L 662.56,115.86 L 663.37,116.42 L 665.12,117.36 L 666.02,117.79 L 667.97,118.47 L 668.96,118.78 L 671.12,119.20 L 672.23,119.38 L 674.64,119.54 L 675.87,119.60 L 678.54,119.52 L 679.91,119.45 L 682.87,119.13 L 687.67,118.38 L 688.37,118.25 L 689.40,118.17 L 689.87,118.17 L 690.59,118.43 L 690.92,118.61 L 691.51,119.31 L 692.48,120.97 L 692.79,121.55 L 693.19,122.52 L 693.36,122.98 L 693.51,123.73 L 693.56,124.08 L 693.46,124.68 L 693.03,125.46 L 692.65,125.92 L 691.24,126.71 L 690.44,127.09 L 688.33,127.70 L 687.21,127.99 L 684.59,128.41 L 683.24,128.60 L 680.31,128.82 L 677.33,128.99 L 671.22,128.68 L 669.75,128.54 L 666.99,128.09 L 665.66,127.84 M 686.79,102.13 L 686.86,101.91 L 686.80,101.41 L 686.73,101.15 L 686.42,100.59 L 686.04,100.02 L 684.69,98.83 L 683.94,98.24 L 682.04,97.18 L 678.87,95.97 L 677.90,95.70 L 675.83,95.44 L 674.78,95.34 L 672.64,95.38 L 671.58,95.44 L 669.48,95.75 L 668.45,95.94 L 666.52,96.49 L 665.58,96.79 L 663.92,97.54 L 663.13,97.94 L 661.86,98.85 L 661.27,99.33 L 660.49,100.37 L 660.00,102.04 L 660.00,102.54 L 660.26,103.20 L 660.38,103.34 L 660.80,103.54 L 661.04,103.64 L 661.79,103.76 L 662.22,103.81 L 663.39,103.85 L 664.04,103.87 L 665.74,103.85 L 666.66,103.84 L 668.97,103.77 L 673.23,103.62 L 675.12,103.55 L 678.51,103.35 L 680.12,103.25 L 682.77,102.99 L 683.38,102.93 L 684.41,102.79 L 684.89,102.72 L 685.65,102.57 L 686.00,102.50 L 686.46,102.35 L 686.65,102.28 M 186.10,97.18 L 184.29,96.18 L 181.14,94.14 L 179.63,93.11 L 177.03,90.97 L 175.80,89.88 L 173.72,87.56 L 172.75,86.38 L 171.15,83.81 L 170.40,82.50 L 169.24,79.62 L 168.72,78.14 L 167.96,74.88 L 167.63,73.19 L 167.23,69.48 L 167.00,63.32 L 167.00,61.93 L 167.02,59.66 L 167.04,58.61 L 167.16,56.98 L 167.24,56.24 L 167.55,55.22 L 167.73,54.78 L 168.29,54.32 L 168.60,54.16 L 169.50,54.22 L 170.00,54.31 L 171.31,54.86 L 172.02,55.19 L 173.83,56.17 L 177.18,58.11 L 179.02,59.18 L 182.18,61.22 L 183.68,62.23 L 186.22,64.22 L 187.42,65.22 L 189.41,67.27 L 190.34,68.31 L 191.83,70.53 L 192.52,71.67 L 193.59,74.16 L 194.07,75.44 L 194.78,78.31 L 195.09,79.81 L 195.49,83.16 L 195.83,88.86 L 195.88,90.42 L 195.90,93.34 L 195.90,94.74 L 195.83,97.12 L 195.79,98.23 L 195.64,99.83 L 195.60,100.16 L 195.50,100.64 L 195.34,101.04 L 195.22,101.15 L 194.35,100.99 L 193.82,100.85 L 192.28,100.24 L 191.44,99.89 L 189.42,98.93 L 188.38,98.41 M 307.00,79.74 L 306.35,79.40 L 305.39,78.55 L 304.96,78.10 L 304.44,77.09 L 304.22,76.57 L 304.10,75.48 L 304.09,74.94 L 304.34,73.87 L 304.51,73.34 L 305.10,72.38 L 305.44,71.91 L 306.35,71.15 L 306.84,70.79 L 308.04,70.31 L 310.14,70.00 L 311.27,70.00 L 313.13,70.31 L 313.98,70.52 L 315.27,71.24 L 315.85,71.65 L 316.57,72.77 L 317.00,74.91 L 317.00,75.49 L 316.76,76.55 L 316.61,77.06 L 316.09,77.97 L 315.81,78.39 L 315.07,79.11 L 314.67,79.45 L 313.75,79.97 L 313.27,80.20 L 312.22,80.49 L 311.68,80.60 L 310.53,80.65 L 309.96,80.64 L 308.77,80.41 L 308.18,80.26 Z" fill="rgba(250,250,250,1)"/>
</g>
</svg>